PathFileType	4	(X/Y/Z)	Patient4_TMGait_0pt4_01_left_08.trc.trc
DataRate	CameraRate	NumFrames	NumMarkers	Units	OrigDataRate	OrigDataStartFrame	OrigNumFrames
74.866310160428	74.866310160428	4	33	mm	74.866310160428	89	       141
Frame#	Time	Sacral			L.Shoulder			Chest			R.Shoulder			Neck			R.ASIS			L.ASIS			R.Thigh.Superior			R.Thigh.Lateral			R.Thigh.Inferior			R.Patella			L.Thigh.Superior			L.Thigh.Lateral			L.Thigh.Inferior			L.Patella			L.Shank.Superior			L.Shank.Lateral			L.Shank.Inferior			R.Shank.Superior			R.Shank.Lateral			R.Shank.Inferior			R.Heel			R.Midfoot.Superior			R.Midfoot.Lateral			R.Toe			L.Heel			L.Midfoot.Lateral			L.Midfoot.Superior			L.Toe			L.Elbow			L.Wrist			R.Elbow			R.Wrist			
		X1	Y1	Z1	X2	Y2	Z2	X3	Y3	Z3	X4	Y4	Z4	X5	Y5	Z5	X6	Y6	Z6	X7	Y7	Z7	X8	Y8	Z8	X9	Y9	Z9	X10	Y10	Z10	X11	Y11	Z11	X12	Y12	Z12	X13	Y13	Z13	X14	Y14	Z14	X15	Y15	Z15	X16	Y16	Z16	X17	Y17	Z17	X18	Y18	Z18	X19	Y19	Z19	X20	Y20	Z20	X21	Y21	Z21	X22	Y22	Z22	X23	Y23	Z23	X24	Y24	Z24	X25	Y25	Z25	X26	Y26	Z26	X27	Y27	Z27	X28	Y28	Z28	X29	Y29	Z29	X30	Y30	Z30	X31	Y31	Z31	X32	Y32	Z32	X33	Y33	Z33	

89	10.475428571429	811.223089109939	1002.431739171259	504.021494960638	998.995136194667	1431.929682757342	325.699290447155	1085.402343788308	1367.825497419070	497.393165482721	984.874888636351	1441.985354482413	661.721260307459	966.485741335475	1496.547765797154	480.428226177933	1035.651453640746	946.681932828574	636.212902788876	1035.739140679346	962.755786323658	360.308938441551	1087.500263738168	747.638040642649	603.362926423819	1009.944694730423	634.742046240086	661.939585967221	1090.721480554424	586.389692597947	582.398633541261	1094.985376393675	499.659161891674	587.834364418015	1065.124229830217	738.458404566202	385.009051445770	971.273690136999	628.651774345456	316.626906487661	1050.993993216106	540.903365994537	376.287142724121	1041.134852305993	458.994203534460	374.247164736088	979.226136840535	400.363340691430	368.533930555815	846.115707909533	339.356245840381	319.088829110982	846.186047439680	211.478244541341	379.104783481553	1071.374175998443	409.767107487762	595.361310259084	1004.543090622958	303.114885064603	656.021427682788	1051.496466103043	209.752866272794	594.129312289987	924.840855265712	43.057028887146	563.295537384367	1094.969876833706	98.124665226963	601.014032888171	1007.501582654127	37.318838863246	639.379159726699	1215.443500667306	46.428727172642	630.079600523070	666.061211073241	114.531006670071	416.154329019018	734.739048799209	76.273449163604	342.400765974731	833.389437738537	109.459811456601	365.481220807219	933.856973161187	35.208944300139	351.939391366671	1015.549046268414	1078.971044345321	211.850321054254	1155.723082987427	857.971860221698	207.903316328226	920.736213504864	1098.541434039905	778.591272585789	1043.260441990372	868.471192887121	789.730358786793	
90	10.488785714286	811.710982571567	1002.357217734334	508.171054519700	997.028515138819	1432.195180881943	328.347351467894	1085.366561892082	1368.225541188837	499.118440491067	986.467248229102	1442.141719664832	664.481900888627	965.983458668546	1496.675254530980	483.362957352745	1037.333065993674	946.747980576738	638.129831032316	1034.963753761118	963.021530480021	362.462987014207	1087.436729719059	746.914305555671	605.609282013705	1008.908266261786	634.554908442851	663.993331815536	1089.189841839018	585.739771202525	584.384234974967	1092.738761356442	498.954092793892	589.528116381426	1070.017464589458	740.646568657879	387.127757518781	980.497300611242	628.695060875129	317.854331089831	1063.041345562475	542.541995506145	377.201454414940	1054.185883528525	459.360473991908	374.207360374913	990.185928255846	400.933523615145	368.645948234891	854.924665593428	344.764562039198	319.318731669937	851.035154109899	216.694548111354	378.455741303371	1068.615539422764	409.190045950575	596.700657417357	1001.165385643458	302.815069747467	657.001639290024	1047.353428236138	209.366162507691	594.643551419520	919.619108123600	43.090732513775	563.356634267805	1089.841892853857	97.998596078955	601.169285948703	1002.257572280106	37.290597399560	639.459733644043	1210.287712749356	45.939553717861	630.184873776703	667.265437712518	128.817545571064	414.898364809191	733.829897088583	86.077678339694	341.638190753390	834.179359216888	113.537719869377	364.656947789743	929.025766184918	34.161394679688	352.297544164580	1011.464585771958	1078.769819811766	215.590680581427	1141.797441188303	851.834927022939	210.066257961088	929.055239687808	1098.316724803147	784.124104032491	1062.643768661141	874.717358655308	793.825094600263	
91	10.502142857143	811.964271119094	1002.170590438266	512.239182701894	994.909109571899	1432.231698149596	330.834816912864	1085.271699540422	1368.401665777416	500.620009877948	988.149095210858	1442.121442478859	667.083745420298	965.512135832505	1496.636319283346	486.143165013102	1038.790588288493	946.659122166299	639.943923291631	1033.910404211977	962.988413288480	364.544109024088	1087.315743279858	746.170349792572	607.860378135763	1007.922541935334	634.287243908716	666.049678675866	1087.753862118099	585.072214382608	586.375950370883	1090.588586305204	498.203604810208	591.276684017692	1074.831576493796	742.991736060113	389.233060834625	989.830356259549	628.971283444937	319.011735327509	1075.049397113173	544.600409021385	378.169698323830	1067.361881376188	460.249975553066	374.405104338719	1001.503804860387	401.859558501670	368.904515082116	864.360456622645	350.435096961751	319.503097561500	856.482371348962	222.378503110429	378.003177240661	1065.941830432665	408.552112675524	598.059116680596	997.852524467634	302.466836223759	658.027695682089	1043.227893180738	208.931669846172	595.173877582794	914.349242211480	43.128917427682	563.423709269780	1084.672474597632	97.858574420719	601.312352365061	996.969730338403	37.258535458420	639.542309777381	1205.095476286287	45.412178478965	630.279447766895	669.425294178581	143.785179013323	413.747711641271	733.736488835405	96.812213841786	340.912231714804	835.540967267364	118.342223323746	364.039731682888	924.599600572864	33.077929570622	352.577754564482	1006.796848681114	1078.331097391776	219.135402359543	1127.632624834770	846.254742905481	212.316896862083	937.594603103067	1098.154528533310	789.621101531035	1082.168734904230	881.740602415162	797.549396120136	
92	10.515500000000	811.990965365604	1001.907040893579	516.177884162316	992.691052120194	1432.078547404957	333.150281525336	1085.123256977126	1368.384586744431	501.905251681821	989.889728497443	1441.962033064817	669.506612443329	965.087289506536	1496.470944516279	488.743455589640	1040.009812317650	946.444773125372	641.678809206321	1032.638294878630	962.720825853212	366.554161391839	1087.174284799749	745.443996209190	610.075231575537	1007.037898979321	633.957244529548	668.068705150835	1086.463214075762	584.406180524227	588.326216448018	1088.590937051961	497.417315309343	593.019189338862	1079.438341214128	745.514811284976	391.316108443999	999.038561582449	629.555824104484	320.106409914155	1086.756652070061	547.124424187936	379.169494722533	1080.416946004099	461.710895651441	374.798552849600	1012.946336380581	403.189384981309	369.286504585620	874.188029224017	356.286888780206	319.667947044603	862.430982127154	228.402115404512	377.750128973483	1063.391912034781	407.865570234741	599.390874249593	994.640542507076	302.094455741423	659.072021504469	1039.139017154670	208.461773790897	595.700141170364	909.039961225008	43.171997849901	563.508580641666	1079.471053276418	97.713376402110	601.454290277457	991.649562936551	37.226843173273	639.634237087061	1199.873902634952	44.878048535461	630.375123658334	672.531195134018	158.907881916411	412.797668266381	734.542412997247	108.116849915092	340.262321074068	837.527148417843	123.781605271465	363.606867064154	920.861919680311	32.083218009161	352.664024041662	1001.484646544922	1077.701569353145	222.479342649034	1113.312278577612	841.256193853503	214.668701807748	946.367726863132	1098.061085436446	794.983913460001	1101.715420283419	889.523479686619	800.846814610077	
